PathFileType	4	(X/Y/Z)	T00_JumpTrial_0-2667.trc
DataRate	CameraRate	NumFrames	NumMarkers	Units	OrigDataRate	OrigDataStartFrame	OrigNumFrames
30	30	15	21	m	30	1000	2667
Frame#	Time	RHip			RKnee			RAnkle			RBigToe			RSmallToe			RHeel			LHip			LKnee			LAnkle			LBigToe			LSmallToe			LHeel			Neck			Head			Nose			RShoulder			RElbow			RWrist			LShoulder			LElbow			LWrist		
		X1	Y1	Z1	X2	Y2	Z2	X3	Y3	Z3	X4	Y4	Z4	X5	Y5	Z5	X6	Y6	Z6	X7	Y7	Z7	X8	Y8	Z8	X9	Y9	Z9	X10	Y10	Z10	X11	Y11	Z11	X12	Y12	Z12	X13	Y13	Z13	X14	Y14	Z14	X15	Y15	Z15	X16	Y16	Z16	X17	Y17	Z17	X18	Y18	Z18	X19	Y19	Z19	X20	Y20	Z20	X21	Y21	Z21
1001	33.36666666666667	-4.932145021802363	0.7974366525822404	0.6095588654907852	-4.416676903312395	2.784100640397331	0.5829899152016121	-5.685894477674053	-1.0712380438521172	0.10738262640669213	-4.572343127430414	3.2379984157889456	0.2102695781676239	-4.561476275427699	3.1773221314560844	0.09066619124495066	-4.1496542772599545	2.652161459821335	0.3748969664856041	-3.9940467438934912	2.514053801753252	0.2808172202323609	-5.0498868983155765	2.044210963048744	0.581261493191109	-5.357863380884408	-1.103251606250509	-0.031656480467599044	-4.737828826832351	3.3858106204071596	0.5074806264982781	-4.8468040635971015	3.3429073514656964	0.6757596591691731	-4.2610525303763245	2.7565073603097043	0.5777858161506148				-5.51415698955119	-1.0388913713216092	0.35465982487476955	-5.868326367228361	-0.9132118192836157	-0.022378539590913658	-5.395470789776537	-0.012531701219879725	1.3413298857736855	-4.377547895771792	0.6214337996558632	0.3769512928028657	-4.802379185391661	1.9589081206154049	0.008025621847246697	-5.8016294273132685	-0.4362828529150011	0.652645710761737	-5.495795002784292	0.5466461291247107	1.9230593088762462	-4.6826968075355095	0.7354112344369126	0.0429302626234966
1002	33.4	-3.6159780031121764	0.009375308386906927	0.5852859576501886				-10.136803726508159	-1.1492365083879423	0.07862141337639679							-2.212328293550294	1.112442258935765	0.2793917192300534				-4.69961927607895	1.2964684711664942	0.5715982477196544	-11.139197019229846	-1.0657060246944148	-0.21796915083873203							1.0713198952159173	-0.43835991179441564	0.5405298193336202				-7.70148597767072	-1.2403021924021609	0.4176473884571161	-10.853384451804317	-0.9120088026052224	-0.13741596162142833	-3.31724518459128	-0.7872202415367184	1.1839803693101196	-2.7760360508966966	-0.1940404773508314	0.38297843021619665	-3.5793685717045407	0.8803481008943859	0.032144248459877844	-4.900521052626833	-0.9591483902184245	0.709537105531593	-1.9754958123270197	-0.7106327804997181	1.4475740879809784	-4.057390924820827	0.11055958963452879	0.09553281998453898
1003	33.43333333333333	-4.063195976538653	0.03499331543050154	0.5844080206943845				-9.964063645815626	-1.2910888719252613	0.07955385386355333													-6.676349892802126	1.9608861547491143	0.5908407469141139	-9.769981609912225	-1.3027209051329816	-0.13618461384298539													-7.281602825573311	-1.3561106704210368	0.4183237443559845	-10.636709407138701	-1.077387518735321	-0.12257162684489897	-3.0192920184669587	-0.9136099218879873	1.1796368643909683	-3.5402316893271513	-0.08380254848244192	0.3729256359437853	-4.628869017827643	1.170975828234931	-0.05373830476620625	-5.464432400750073	-0.9760819689570334	0.7032230629907941	-1.788166997162324	-0.8786420656021503	1.4537085775050012	-5.177723169404774	0.2949531070773525	0.018281359937901573
1004	33.46666666666667	-6.3792118667393405	0.6093963473063995	0.4971597155525097				-3.0650177222113855	-1.645097258489048	0.49672110487971904																-3.011443778633528	-1.6456424406304515	0.36391054939756207													-3.4034332140567662	-1.6120118142006452	0.6091964904103533	-3.393671012906466	-1.5633514466080112	0.39142328381686337	-5.9092821962386175	-0.5762547044797263	1.4126098801806355	-5.635021620046644	0.43908170690381637	0.20023220530824387				-4.482728980281832	-1.1010600379798332	0.7683531014845842	-6.363523259930042	-0.16176882220911698	2.1586082338313863	-5.288076575613318	0.3389542009808747	-0.031144079180679924
1005	33.5	-5.871064206411285	0.44422350649114944	0.5289642492977966				-3.068700341427418	-1.666083299862021	0.4950972397935575																-3.0115229684320837	-1.6646274725594556	0.36333458002107155													-3.4076104354194396	-1.63428437409799	0.6073537996623952	-3.3498836737359445	-1.5974226144481243	0.4151637494397946	-5.913706028671539	-0.6899984867877076	1.4311488187791348	-5.137774710963982	0.2684711848846929	0.24821449992352904				-4.468428335926451	-1.1178312704297122	0.7697805539039486	-7.371088807321704	-0.18691930542572266	2.299244534799697	-4.913345991445912	0.1882970168063848	0.0057286814568628195
1006	33.53333333333333	-6.0861491622524415	0.5119205798282676	0.5150702436714257				-3.09593072329268	-1.6755694159220937	0.4915825580828557																-3.1701217108420767	-1.6684911467016932	0.3515763339135794													-3.5673971544948526	-1.6279949516826406	0.6027511534271737	-3.333357208007497	-1.6045712479669858	0.4179831568664335	-5.835755285237233	-0.7629153008742692	1.426608213981885	-5.334289685100449	0.32650475049662875	0.22814163813949226				-4.477722687923972	-1.1199865356035017	0.7688119723744896	-7.221501260097154	-0.40035233592537617	2.272675982767826	-4.921471641090572	0.19254910981347498	0.004413204997652852
1007	33.56666666666667	-6.008473537118028	0.4960859456720994	0.5344679066867644				-3.2054038301878434	-1.6445213857400554	0.4899921830523191																-2.990918916522261	-1.6577286501734898	0.3662824373361141													-3.389633555638461	-1.6242024466343765	0.6100136083204285	-3.207836460229551	-1.588316688869762	0.43991365560987	-5.4263862264965805	-0.830100729936854	1.429311123157835	-5.291987813883636	0.34401641021634755	0.24587121343872753				-4.461214831351998	-1.1157896000888805	0.7688298293174166	-7.199742800587414	-0.45007032321673	2.2997785492841127	-5.164062926258896	0.2726785328197451	-0.025862916535648837
1008	33.6	-6.718666695620382	0.740920503315699	0.4751930987199584				-3.2051487091327076	-1.6202406588484617	0.49219020515249484																-3.129374955174653	-1.6295738184993702	0.3590618286170898													-3.6107115807984296	-1.5695986019781005	0.6004708795280879	-3.3478255485676423	-1.5180649466777445	0.4145647116148588	-4.915942732276351	-0.8841236841983001	1.4430359600414941	-6.260839723722959	0.6321082710493127	0.13455135273622248				-4.278261540428898	-1.1101363663997756	0.7890561719890855	-6.693646034070337	-0.6368378669441385	2.2569594767606094	-6.190067746768038	0.6114415091283208	-0.17495127337103686
1009	33.63333333333333	-7.612308906210377	1.0430237783006349	0.4196627994311031				-3.28096338462914	-1.545850100142465	0.4827375651819515																-3.190965859679268	-1.5547910234461169	0.34993811676593023													-3.7364616764321577	-1.4861377439609211	0.6003264746356364	-3.350913073040462	-1.4735378899416327	0.41693230362248074	-4.965224357184906	-0.8674773703586054	1.4459528894518467	-6.768788160940492	0.822334759257135	0.08502865945759511				-4.5713791743107315	-0.9576511095816251	0.7688085072780508	-6.646444977791936	-0.6709688791446328	2.227467626721166	-6.4227758961358115	0.6977962325741264	-0.1964436480617036
1010	33.666666666666664	-7.005039731705532	1.0415027954834222	0.44601075022585523				-3.2130332671754047	-1.4837799630343023	0.4923997946949565																-3.1502779089778445	-1.485586951045552	0.3566737288465434													-3.584841652577719	-1.4139027744157067	0.6042113907316129	-3.4951912369739624	-1.3537131187486842	0.40901797519395405	-4.970640889963627	-0.862656297307232	1.4447909191808384	-7.433866550473671	1.1587561780897697	-0.0013686887344472566				-4.560885078943247	-0.9251916323642774	0.767927458557428	-6.745840160007744	-0.7205781285032253	2.2320546407610635	-6.994459004633227	1.0517464564586456	-0.3149157325274514
1011	33.7	-7.718136408962767	1.4023699801192986	0.40067403517356504				-3.368730032265432	-1.3564942164649496	0.4850132507381846																-3.2919524272737584	-1.367514360561986	0.34764923539220816													-3.582020430726727	-1.33041841284727	0.6062447453951569	-3.4991333160965485	-1.2756355438117706	0.41034404564525423	-5.782337493300721	-0.6840898026101361	1.4663063381217305	-7.720650720676645	1.3714588234705092	-0.05364099259640016				-4.669447560182976	-0.7545072823543241	0.7685860604358065	-6.689456970709866	-0.81430839771409	2.1642857425891577	-7.218425832832289	1.2288850301560301	-0.37350788160505055
1012	33.733333333333334	-8.462171658416805	1.7463374981484314	0.33640395026853376				-3.3644953850269097	-1.2497862657199168	0.4689977412682614																-3.1532878276843452	-1.2666303730532007	0.35537183043473797													-3.605056933597259	-1.1986040717287147	0.6068231632912409	-3.6761037697635914	-1.1551885545590532	0.3826466696353343	-5.6201305912729005	-0.5994253373383176	1.4435615690847798	-8.061990244047683	1.6103353771709243	-0.08316374973215254				-5.032363249638048	-0.5990995414859737	0.7398278342396674	-5.7407677109064315	-0.9055060882172783	2.0505580864062085	-7.588319354204008	1.4178983956420015	-0.4378332351525744
1013	33.766666666666666	-8.789611052525531	1.9409419572593798	0.28747706827895				-3.360322869408532	-1.1901848362609726	0.47078365894648394																-3.1496062052070033	-1.2203463984648477	0.3563822787760484													-3.44381391577728	-1.164884907612783	0.6111049750178958	-3.692596019661919	-1.0437925050482229	0.36190195226131394	-5.706586161730563	-0.5157828233295644	1.4391675192599769	-8.713653078130443	1.9118744740054778	-0.1341930913830742				-4.946528820768443	-0.5176278296127448	0.7457985190980733	-6.365438125451629	-0.743009172402471	2.0128436564495598	-8.18879292551213	1.6710272702113937	-0.5266241340862307
1014	33.8	-8.828538145667562	2.0190356501308613	0.254704687935423				-3.2093528921565246	-1.1096814763707035	0.4780789366697506																-3.1504699956871645	-1.1220606324533409	0.3570809925229833													-3.6075804902217974	-1.039919046178623	0.5918681487524651	-3.8710907634230485	-0.9874426509837353	0.33181766411042196	-6.442860193379929	-0.3271728317909617	1.391601302999415	-9.519623699030234	2.2174909910889378	-0.200289546111112				-5.364521804248722	-0.3924327128212305	0.7038443355220854	-6.333352013957311	-0.7472752738956485	1.9547307766463624	-8.857928575633512	1.933530445277919	-0.6197933056564136
1015	33.833333333333336	-8.698049894449214	2.0147451504238143	0.23631416877374326				-3.207504071010931	-1.0866315103560984	0.4789347657597924																-3.296851681822062	-1.0762355366559446	0.330940757260451													-3.6177966455492405	-1.0300677960694244	0.5908163421126291	-3.689511826795417	-0.9748756353175136	0.34214945735492674	-6.728616354895859	-0.2526237166038256	1.3822640227470313	-10.255116484490767	2.463194138596665	-0.26210445414865724				-4.627185051800431	-0.4465649477727695	0.7242832383788457	-5.742649905304333	-0.8238283109530495	1.8892069382250887	-9.433808333445002	2.1506667122552883	-0.6972534771135177
